# xmcd
#
# Track frame offsets: 
#        150
#        674
#        17881
#        39596
#        57098
#        72095
#        89014
#        105047
#        120479
#        149604
#        172008
#        190375
#        208327
#        231426
#        248859
#        271385
#        290724
#        300596
#        314512
#        329200
#
# Disc length: 4610 seconds
#
# Revision: 0
# Processed by: cddbd v1.5.2PL0 Copyright (c) Steve Scherf et al.
# Submitted via: ExactAudioCopy v0.99pb4
#
DISCID=33120014
DTITLE=Various Artist - prevue promo 1088A-1
DYEAR=2002
DGENRE=pop
TTITLE0=blank - data
TTITLE1=Luis Fonsi - Secret
TTITLE2=Michael Jackson - Heaven Can Wait
TTITLE3=Josh Groban - To Where You Are(Re-Service - Ally McBeal Xmas E
TTITLE3=pisode)
TTITLE4=Britney Spears - Overprotected
TTITLE5=Jerzee Monet - Most High
TTITLE6=Freestylers - Weekend Song
TTITLE7=Corrs, The - Would You Be Happier?(Live)
TTITLE8=Chemical Brothers, The - Star Guitar(Instrumental - Album Vers
TTITLE8=ion)
TTITLE9=Chemical Brothers, The - Come With Us
TTITLE10=Luther Wright and The Wrongs - Another Brick In The Wall Part 2
TTITLE10=(Album Version - Note Ending)
TTITLE11=Garrison Starr - Big Sky
TTITLE12=Jake Andrews - Bitter End, The
TTITLE13=Neil Young - Differently
TTITLE14=Neil Young and Crazy Horse - Goin' Home
TTITLE15=Cypress Hill and Roni Size - Child Of The West
TTITLE16=Home Town Hero - Questions
TTITLE17=Linkin Park - Runaway
TTITLE18=Paul McCartney - Lonely Road
TTITLE19=Dokken - Sunless Days
EXTD=
EXTT0=
EXTT1=
EXTT2=
EXTT3=
EXTT4=
EXTT5=
EXTT6=
EXTT7=
EXTT8=
EXTT9=
EXTT10=
EXTT11=
EXTT12=
EXTT13=
EXTT14=
EXTT15=
EXTT16=
EXTT17=
EXTT18=
EXTT19=
PLAYORDER=
